<mxfile host="Electron" modified="2024-05-01T19:32:41.643Z" agent="Mozilla/5.0 (Windows NT 10.0; Win64; x64) AppleWebKit/537.36 (KHTML, like Gecko) draw.io/24.2.5 Chrome/120.0.6099.109 Electron/28.1.0 Safari/537.36" etag="SvGxau8DOo5y3Q94jZFZ" version="24.2.5" type="device">
  <diagram name="Page-1" id="66VNbPohEKGQcOHE0C3B">
    <mxGraphModel dx="2314" dy="1196" grid="1" gridSize="10" guides="1" tooltips="1" connect="1" arrows="1" fold="1" page="1" pageScale="1" pageWidth="850" pageHeight="1100" math="0" shadow="0">
      <root>
        <mxCell id="0" />
        <mxCell id="1" parent="0" />
        <mxCell id="9iFDc-Ykth7a7X6Qurif-12" value="" style="rounded=1;whiteSpace=wrap;html=1;" vertex="1" parent="1">
          <mxGeometry x="40" y="140" width="1080" height="500" as="geometry" />
        </mxCell>
        <mxCell id="9iFDc-Ykth7a7X6Qurif-11" value="" style="group" vertex="1" connectable="0" parent="1">
          <mxGeometry x="100" y="160" width="1000" height="440" as="geometry" />
        </mxCell>
        <mxCell id="9iFDc-Ykth7a7X6Qurif-1" value="" style="sketch=0;pointerEvents=1;shadow=0;dashed=0;html=1;strokeColor=none;fillColor=#505050;labelPosition=center;verticalLabelPosition=bottom;verticalAlign=top;outlineConnect=0;align=center;shape=mxgraph.office.concepts.application_web;" vertex="1" parent="9iFDc-Ykth7a7X6Qurif-11">
          <mxGeometry width="59.41" height="40" as="geometry" />
        </mxCell>
        <mxCell id="9iFDc-Ykth7a7X6Qurif-5" value="" style="rounded=0;whiteSpace=wrap;html=1;" vertex="1" parent="9iFDc-Ykth7a7X6Qurif-11">
          <mxGeometry x="24.753960396039602" y="179.99634920634918" width="950.4950495049504" height="178.09523809523807" as="geometry" />
        </mxCell>
        <mxCell id="9iFDc-Ykth7a7X6Qurif-3" value="" style="image;sketch=0;aspect=fixed;html=1;points=[];align=center;fontSize=12;image=img/lib/mscae/Docker.svg;" vertex="1" parent="9iFDc-Ykth7a7X6Qurif-11">
          <mxGeometry x="910.0020792079208" y="192.06253968253966" width="48.888888888888886" height="40.08888888888889" as="geometry" />
        </mxCell>
        <mxCell id="9iFDc-Ykth7a7X6Qurif-7" value="" style="rounded=0;whiteSpace=wrap;html=1;" vertex="1" parent="9iFDc-Ykth7a7X6Qurif-11">
          <mxGeometry x="154.35000000000002" y="22.3" width="271.39" height="102.06" as="geometry" />
        </mxCell>
        <mxCell id="9iFDc-Ykth7a7X6Qurif-6" value="" style="image;sketch=0;aspect=fixed;html=1;points=[];align=center;fontSize=12;image=img/lib/mscae/Docker.svg;" vertex="1" parent="9iFDc-Ykth7a7X6Qurif-11">
          <mxGeometry x="360" y="40" width="42.78" height="35.08" as="geometry" />
        </mxCell>
        <mxCell id="9iFDc-Ykth7a7X6Qurif-8" value="" style="endArrow=classic;html=1;rounded=0;entryX=0;entryY=0.5;entryDx=0;entryDy=0;" edge="1" parent="9iFDc-Ykth7a7X6Qurif-11" source="9iFDc-Ykth7a7X6Qurif-1" target="9iFDc-Ykth7a7X6Qurif-9">
          <mxGeometry width="50" height="50" relative="1" as="geometry">
            <mxPoint x="188.11881188118812" y="111.74886588451805" as="sourcePoint" />
            <mxPoint x="49.504950495049506" y="117.41714285714285" as="targetPoint" />
          </mxGeometry>
        </mxCell>
        <mxCell id="9iFDc-Ykth7a7X6Qurif-21" style="edgeStyle=orthogonalEdgeStyle;rounded=0;orthogonalLoop=1;jettySize=auto;html=1;exitX=0.5;exitY=1;exitDx=0;exitDy=0;" edge="1" parent="9iFDc-Ykth7a7X6Qurif-11" source="9iFDc-Ykth7a7X6Qurif-9" target="9iFDc-Ykth7a7X6Qurif-15">
          <mxGeometry relative="1" as="geometry">
            <mxPoint x="148.5148514851485" y="195.55555555555554" as="targetPoint" />
          </mxGeometry>
        </mxCell>
        <mxCell id="9iFDc-Ykth7a7X6Qurif-9" value="Python Applicaton" style="shape=process;whiteSpace=wrap;html=1;backgroundOutline=1;" vertex="1" parent="9iFDc-Ykth7a7X6Qurif-11">
          <mxGeometry x="198.6378217821782" y="52.38095238095238" width="118.8118811881188" height="41.904761904761905" as="geometry" />
        </mxCell>
        <mxCell id="9iFDc-Ykth7a7X6Qurif-17" value="" style="group" vertex="1" connectable="0" parent="9iFDc-Ykth7a7X6Qurif-11">
          <mxGeometry x="301.980198019802" y="200.00349206349205" width="123.76237623762376" height="90.79365079365078" as="geometry" />
        </mxCell>
        <mxCell id="9iFDc-Ykth7a7X6Qurif-15" value="" style="shape=image;imageAspect=0;aspect=fixed;verticalLabelPosition=bottom;verticalAlign=top;image=data:image/svg+xml,PHN2ZyB4bWxucz0iaHR0cDovL3d3dy53My5vcmcvMjAwMC9zdmciIHdpZHRoPSI5MDAiIHZpZXdCb3g9Ii0xNzMgLTE0MyA5MDAgOTAwIiBoZWlnaHQ9IjkwMCI+PHBhdGggZmlsbD0ibm9uZSIgZD0ibS0xNzMtMTQzaDkwMHY5MDBoLTkwMHoiLz48cGF0aCBmaWxsPSIjMjJhZGY2IiBkPSJtNjk0LjEgMzk0LjktODEtMzUyLjdjLTQuNi0xOS4zLTIyLjEtMzguNi00MS40LTQ0LjJsLTM3MC4yLTExNC4yYy00LjYtMS44LTEwLjEtMS44LTE1LjctMS44LTE1LjcgMC0zMi4yIDYuNC00My4zIDE1LjdsLTI2NS4yIDI0Ni44Yy0xNC43IDEyLjktMjIuMSAzOC43LTE3LjUgNTcuMWw4Ni42IDM3Ny42YzQuNiAxOS4zIDIyLjEgMzguNyA0MS40IDQ0LjJsMzQ2LjIgMTA2LjhjNC42IDEuOCAxMC4xIDEuOCAxNS43IDEuOCAxNS43IDAgMzIuMi02LjQgNDMuMy0xNS43bDI4My42LTI2My4zYzE0LjgtMTMuOCAyMi4xLTM4LjcgMTcuNS01OC4xem0tNDUzLjktNDI3LjMgMjU0LjEgNzguM2MxMC4xIDIuOCAxMC4xIDcuNCAwIDEwLjFsLTEzMy41IDMwLjRjLTEwLjEgMi44LTIzLjktMS44LTMxLjMtOS4ybC05My0xMDAuNGMtOC4zLTguMi02LjUtMTEuOSAzLjctOS4yem0xNTguMyA0NTUuOWMyLjggMTAuMS0zLjcgMTUuNy0xMy44IDEyLjlsLTI3NC40LTg0LjdjLTEwLjEtMi44LTEyLTExLjEtNC42LTE4LjRsMjEwLTE5NS4zYzcuNC03LjQgMTUuNy00LjYgMTguNCA1LjV6bS00NTIuMS0yNDguNyAyMjIuOS0yMDcuMmM3LjQtNy40IDE5LjMtNi40IDI2LjcuOWwxMTEuNCAxMjAuN2M3LjQgNy40IDYuNCAxOS4zLS45IDI2LjdsLTIyMi45IDIwNy4yYy03LjQgNy40LTE5LjMgNi40LTI2LjctLjlsLTExMS40LTEyMC42Yy03LjQtOC4zLTYuNC0yMC4zLjktMjYuOHptNTQuNCAzMjguOC01OC45LTI1OC44Yy0yLjgtMTAuMSAxLjgtMTIgOC4zLTQuNmw5MyAxMDAuNGM3LjQgNy40IDEwLjEgMjIuMSA3LjQgMzIuMmwtNDAuNiAxMzAuOGMtMi44IDEwLjEtNy40IDEwLjEtOS4yIDB6bTMyNS45IDE1MS0yOTEtODkuM2MtMTAuMS0yLjgtMTUuNy0xMy44LTEyLjktMjMuOWw0OC44LTE1Ni42YzIuOC0xMC4xIDEzLjgtMTUuNyAyMy45LTEyLjlsMjkxIDg5LjNjMTAuMSAyLjggMTUuNyAxMy44IDEyLjkgMjMuOWwtNDguOCAxNTYuNmMtMy42IDEwLjItMTMuNyAxNS43LTIzLjkgMTIuOXptMjU3LjgtMjExLjgtMTk0LjIgMTgwLjVjLTcuNCA3LjQtMTEgNC42LTguMy01LjVsNDAuNS0xMzAuOGMyLjgtMTAuMSAxMy44LTIwLjMgMjMuOS0yMi4xbDEzMy41LTMwLjRjMTAuMi0yLjcgMTIgMS45IDQuNiA4LjN6bTIxLjItMzguNi0xNjAuMiAzNi44Yy0xMC4xIDIuOC0yMC4zLTMuNy0yMy0xMy44bC02OC4xLTI5Ni41Yy0yLjgtMTAuMSAzLjctMjAuMyAxMy44LTIzbDE2MC4yLTM2LjhjMTAuMS0yLjggMjAuMyAzLjcgMjMgMTMuOGw2OC4xIDI5Ni41YzIuOCAxMS0zLjYgMjEuMS0xMy44IDIzeiIvPjwvc3ZnPg==;" vertex="1" parent="9iFDc-Ykth7a7X6Qurif-17">
          <mxGeometry x="15.470297029702971" width="62.857142857142854" height="62.857142857142854" as="geometry" />
        </mxCell>
        <mxCell id="9iFDc-Ykth7a7X6Qurif-16" value="InfluxDB Time Series DB" style="text;strokeColor=none;align=center;fillColor=none;html=1;verticalAlign=middle;whiteSpace=wrap;rounded=0;" vertex="1" parent="9iFDc-Ykth7a7X6Qurif-17">
          <mxGeometry y="69.84126984126983" width="123.76237623762377" height="20.952380952380953" as="geometry" />
        </mxCell>
        <mxCell id="9iFDc-Ykth7a7X6Qurif-23" value="" style="group" vertex="1" connectable="0" parent="9iFDc-Ykth7a7X6Qurif-11">
          <mxGeometry x="99.00990099009901" y="206.03174603174602" width="128.7128712871287" height="76.82539682539682" as="geometry" />
        </mxCell>
        <mxCell id="9iFDc-Ykth7a7X6Qurif-20" value="" style="group" vertex="1" connectable="0" parent="9iFDc-Ykth7a7X6Qurif-23">
          <mxGeometry width="128.7128712871287" height="76.82539682539682" as="geometry" />
        </mxCell>
        <mxCell id="9iFDc-Ykth7a7X6Qurif-18" value="" style="shape=image;imageAspect=0;aspect=fixed;verticalLabelPosition=bottom;verticalAlign=top;image=data:image/png,iVBORw0KGgoAAAANSUhEUgAAASwAAADLCAMAAADjlV7JAAAABGdBTUEAALGPC/xhBQAAAAFzUkdCAK7OHOkAAABLUExURfFcWPFcWPFcWPFcWPFcWPFcWPFcWEdwTPFcWPFcWPFcWPFcWPFcWPFcWPFcWPFcWPFcWPFcWPFcWPFcWPFcWPFcWPFcWPFcWPFcWLFt2SgAAAAZdFJOU/4XjeUHAg4A7/fTSJ6vyt0fML9tOnwnVGB2x5svAAAdcklEQVR42txc6ZqkqBJFJEhQ3Nf3f9LL4gaCUn0rbaeZ/jFfZZpqEHHixAb6xC7ai+pmlUIILPAwdKF/3TxP89Q3Cfn8BxeK/B7pRYp+YXEmV1qVOKf/rLCSgaHfXazo4d8UViI4+vWVTfAvCotihr6wsv+abkUJa/6KrBAqx39PWHX2HVkhLui/Jiwy8C8JC6XTvyaspkJfW8V/SrUQ6Qe55invmzrxPDpQ8T1ZIT6fMZ4k9djk0zwMWAzNm3wAwivX5JIqFmKYmpoe6TV8C90XjK/hsC/JmHe4aLOUr5bfJm8SVusy7LQshmncBFaX6KurMzciVMpJtCnjrjBfLKxFYlkx5LV6DQiguxQqW/79f/CfNfImdT4U2UmDlXq9S1iFfCjc5/ks9b+U+r8/alUMfd1XIfrdN8sqzF+qqe/M+7K5X6KjVAx4/Q9XAfrQz0dBSTTIJBp0c95P6cs8AMLy5TqJG0DkqvtpEGXFNvUpHYqVlpURJy9yCmZN5i8Fgd7gX9pAbv6vTMi66jUK4D4FMkJOSzHM+UgpIeqHG/kjgrwI4VEnn7ZbERZAoWwzY49RaLjN66ZbQKzCEpth46wcm7dTLz1+RqNGYkU+mheLkEs8tB7D5WmL5974llU8SquHV3lD6ey4/URKzeg44ZZ5gjkAMi4OlJezdlUG1lL52apZ48I3+BIqw5bfybqaQF040mKZmJuEAHysB5Hque3jO4SlXhCf2ZUSWO/kZRZSBCQX5gPe5kTBs6jSbKCfXbOkkqm/Ya1YsEoXVcOo7cvxsOmUuHLS100MsVdRfDRmIWCQmmILq0jWr9F5MaUUN/L16diPSi4bZslradM32qbqLlu+K/rlPg53450fmDqOqv5VwqJyl1u/yyE2d2d7/gmktlSrYWmgNyCzYZbBPw1W7eoRpu0ukBQR2QcYpC7WrxIWKWwafXjYPL1IEZBmsUWJ+usHdbVi1p6MZhu+AQR/GpPAXr2KwH8QYG03vsxMe2KPdtCYLy5AUiXzsonBoqx25SlxHWwnYitt6rO2RN7/XTkcBIo75L6N7fgNsCg4WpFb032CudYTaj4dsgOwuakMu/zhQ02FpvhVVSD0yVWA5jHCxuajrc9UN93h7WT8YipxfFx8ANvo69nVGbnueHjeLu1eOniXsDRPvkf33PvYkkYspIkV0haND4QjCW0n6r1yLB1P63OGPH+ZsBTQlPSM7rYRiqA90LlcxLVZG+mLFde7EEIThz6cElsK1tJXMQcpLCh0NOeiq+3cq4skHDQLjeBZp2g4GYdqJ6HhzP4NfVCbmNVvE5aKVtwSHpltxRougZb2m9HhqcMLrjPR0wsrUgTdugWcXUALLxPWRwGp641i0N2iEVPpxHsmLXFZCHHog628MCNfHPa3Nas+6zuNQncrNKq7Y75KklB6qxW9Sx8sURYBSvN3NYtgK5RZ4n3rNWiEOZB+T70wPALcXqNubDFTcFhWVr/NDEGDx5H9AW2vDCSoXLvtyl+LuMSlcuLoORVoCvI6zdI1iWMwAw53HyBugzdNYZEFLOgsjGcH+qCA4F35mUVYdFCpZdsCLHSP+ymgeFPFyCuSNnQnlSV9VxS9CEv7w70yoGRn73ckcuyRd2wzUZA+KD4TSnP9XWEBlZ6H9UF0j/ypQ9WspbHK6HDflZm6yPAizYIJ7RCf2PWEqolFWdMTocuIfI69yKEP60MoeB/epliLsFRoseyqA7poiHxtILo7sJh0OiG280riHPcktpQ7Tht4pWYZ/2cK6U4zVjzVyZmp/+iokkfL2KniGqPP0/fxhl1YCps1RjhEkc2xUG1k1Ekuql8/utLg5Bh1x5bmDf3npcKSkRhXZVK5p9XPufv+zq36Ohl+4hegPtEH7SOj7/wXhGVUCxI7KKyiW2Q1GU9zzeR1Xo/FxnXEoQ8dqORNmn9eq1lSM5Qvok4z1hCtWHjXQzBaFt3S4TDTbJw17YP3CkvTdjb/IbqDQfeVGOnYMhruTsQuOwX2bxPWR+mGU66fYrm7kU63ft0Q8za2cZueRxJeF+nYwnKS7oEiQsAIdV71ENlpYs6iO2DOTWB/o3mG0LrJp0l1146q6elKs6jbA5hGl1YWRD98XTvV6Hjl1Dz+PCGFesJtlqaMM5amWVmoBigSFNapITKWV35MtuFIIsGUBWN5pdtWg4qHCSkZ18LBEYWqAueWwA598LYLlxFLLGKpdkbdu+UkOp3c55W07PqI6iJ8UlbJkIU6ZzMxj/SMWQ53D8XCQMbGnq30xTcLfbCYKdBRggHEJLYebZ6BWlx1r7MKT0uvFQrF/350Jz1uK2nTxbR/7KL7Z4vNjwwgmURZSTDAOflJYuuBNRa3s5HloHMvaFOFwkF33yuN2ywdX2croc58zmDpy11leKhmMNH4sg9O6PBcLqu+lZWWx5AchOVsLfbx7/6Y6sqMfGgoEkwO9AGmIyiUPl/n0Af8FIMnkbOUqj0NnVLC3mYs33d0zsrkGHw9CaZhzXzJLuNwT1bfhczHYsM8dvRbRiTIy3QkukMg/nOqouHs1VK/UKkMJ3ns1VtwEmkPTQvQAsWuMkHeFNzeahvOAOvdN3lVf/3H6JNSulNw4NVEpwA3P+IJ8/gxLjahJTq75+5kOF2OiaFTgfqPUVdBAZ8AwNfEkJROeAhPINYPxowG5OOjwmtVhWf+7TrPtzhKWsYMZcKp4fsBYY0/mWgWyJdR8kZmSebxp+l1/UcbaTGdMTTzqY2TeXyiFDaxH2oWnFptvY3eiWeqK73JEBj4L5lHJ72eqbqnL78LWQ608BJ389wNoky5xx2iz6kZq/Cn/JKAxmZ1OIaEKeCYvZr1ofgPk9p/7Aud1qphVBMQhCRJPxSuvLIRqUd06isQ1hIv/bjYudCAtb9kDWP1Z8XwXyIOYttCUDM2XZHaWRjk4c6hpJMf9S6dFvhH93UhyWsWNiB8u1nZVgB2TJyo/jLSzO02Ql7Ua09pTN6t95nUnan4RRzsQnYSW9/Oa9nCOr26FBfthzblnKdiBCks0kamkojHpPht/cfrnINFQYeZps2TZrjPHNmeLe+GLlcGhNx6vQi/fJN50P2W9nVnv9KOwZvYZsvnr9oh2B4lUOqEdcJtmbAIHLRwcu1txBkWJ1U/zfeXF6brbN2XZ3cc6nBHgxE4wkIivO2kwas/5dHRLjH0oVqPNGAXNzgdufHtQSeblN55X7QOCR4SKBMN622vDjQoW6FLfWke8y6GmONcXZm1Ir847w9yx9K/zUttrnIHKgjOkRsv+sD7qJlVktQJ1fyJx+27mTOvRnmlvJRcUNhtmPoxzbIR/q7jF5lStOvacbhwp9sZdM643Lk7GfvcWs3xjBm85D4vy0VQD2dO1sF3mZZu8bgee7SF5csVqpmlC2TRoH1A9xpnzF7pYR7MEPObmm0yeY57+H6Tlp3PuondUShZyIowIC3NWMleH/Eda4Frm5iLi26AbeguJir6VVqa/SAthE7T3bstipAt9pmVJQ9EjTukwWjaasJe1l+5eyBb6mT/yuRGWG4kzbczdqrBS7pWdF8/C52wtTVqS0agixd+y1bHHnD7VJoHe2kme3vyO2G5B9WJej1hgHlpxMSsDCGEUrOHO68dpz782yZhC6cq9ciJgE6iA98KyyGybAIJt1tJ1IUu3W7DD34qdM4dnxz64GmOI9M2ITzVGD2bofFEvNlVEsUIq3ZrBXLD11NRKmwz7lMTZDDpz/tDWdBLzHZcl86TOGmN7JFTTN3M/3QnLHdSQJECULGNdZrRMZxm+YEAheqUVpjZVKeEzhY98QrXxE1bPjW646RFrmKGpcjqTnfXWhvWI0GY2GkEPXVeAfWfvMw666BF7LTV7LrLzIkjTgmvfWgy09mjq5AHeZPlpsQMEny3Qz9WWzTNWM2RWRtmcC532eZv2gM3GKMrCVWxqNIhpzPlsRZcpzfsKuRB3szOOiABewxSdVrbaoPuxIn+Kt/Jh+ApCy5sYFNa1C42Tib+Z+MK/7ewHDu8KFZtXTSN/0gj2A8qaqeEjsJrIZ7DTNmpGW5pi6C6y2uBw2pYNdbtTHnuRG/HDouwP9yE5bClLSoDkqzHELBWlMezRQ9a4/Ba3xnToA8fkAbd56u2arACX0I1elDqN8jDHKDSQWGdtPEw4nDKBwzJ+cAjh2z5ekWWg94YW6PPwyEZDi9un+yTbJhT47kVltzb4OEw4GSaeCmKQhQCH5YdCLMhP63Zzh1ZJ/q49cWu/ulKkoT+mTY6Gb2LMxkP3cr/o+5KtFvVYWBYTIEAAQNJ/v9LLzaWwfLuhJxzadqe28frMoxlWRpJo7W6m62zlyGy0JwvZLL0q1HgnpWAKXIbmsfQRr7R7fHlrBfsMxo0tfNZk4eApZdnKRZn/OLMj1o9FZAISZlHzMgmr7Bu2jEnJXTa60LA+tNEsOreb0pqpV2PtxpcxjL4z69i6N9TsPOhei19CFiyKautZ5aIWzUPSmnPX8OjfWwv/uFRFIJ6RVE81HfWr/pYiJrEfrqkM3hB1yWMYIsCFi1DmOVuDvPHe6UxDKcqq7L9NYq37fVclp2ZxXtalmnhH/bPy4tfbxEno+iRl/lFcx+aonuFHJrU7ZBaGamAhWUcWGqwCAEpy9HyJrnsI5H/FNF/flrmyQki25VCpot//9mU/bnoqunsjyCqDrk9ln1Dpq5xnc+etdNdJLOvmoxTt1lc6aikBde221pvLPU3w+xz2qYmCSyH+8D81trphohVbD+KEg5n8XQdZJFvO8/veUZx8u1Laky1y8Ynb2m/8pkOuJ2/K228Ez7ewO+uv+pbqnk7RleHvEHspi4BxLynW89fQs+nwdEl1hIAJfdKFELLK1j05WZGF9ahvXG5KvhKcR0MmRolWuljFgho7XeQGR++CCpXqFW1HTthEnLXtNQYrFPGnOFWjXe1Q3szvOyeqlqW2qzBYP0ttTmdBTardoBFvVWdOrNwNbnqGe8n1JeWNl4KT7B+O3PclYLL2loNhMuWXiQULFLaux5zZjmCY5CwzN1gKTYLMblYVPB4qB8zq8KpTpOYhwfG51PbRpt6h0y4D104s7TmMKVqsxz5KZZVYkF1R9xOYxaWGCE/Yq961Jehyn9r5fvRMpXrXUxokaW/hVZ26GAR3PX4CNUw583RCYT9nf3DVbWv2SyUVmpHJFjemaV62BtYAcyChXJOdg+LjuaMg7wOI2KYFYYi6qfIIYsNOJjFGy32zmAUYpbeJgiB1WZ/oiW1asdM/LOx69RCtRXR8u30MW7exmvtH7o2OAos3LZQRh94CZWdWVw8u+bOWKNqswzFaBisSt90NmjQXYPbjVpk9qmhExPU5l3fD+2jNoVRen8qzLiraek/5rwV1s2C8H6ns3OlqssQW3e24jGziAEsYrzLjlYmLctmt+60cNbJkTiwUBEeKPyJh1kM48e0/WG2kgBhs2TdDk7t8l1U1QDxZYjPbhqzWt/xr5rldxjcAwidyvtbQP4fAltEZ1b2umdni9ZX7I89uPN8qyqv+SymQcf2HcSqVbMHRBNvsPvGNgqs7WQSdlh3F7KbwTK3LTQwK69lxxl+bHmXPEYLLnXW1Qq4O7MysVGhRhLcNqKA+P7L6zJZDKk/3xWEVj2X0WDhCJOII+jMIlTmu3l6h1WIMQNTr5ncH89NIXkAVyxDrKET6VcMFh+whcAixrs83AqI8zZ5RuLBIpNpaILOrJ1GGSnH9yAqxPYUIsvIkt03Ph+rOZkEs5C84nE3heO5O03UguDHaOafj1veHELTeZbzzeEG4Dq5nVl3graChnYdP4XV++rbO3A0Q8dTsoomS4DFvoLr/UFIiMDiP01ddAxA9ewbNr3BNzncxys7WMaux2xVqbHms4BGrL2NUKesWX3OEZGDWWRpzcoIpEznfFOZxQZGYUjDRA3UGUH0YmWd9kteuHP33951BtmHDLKvJ0UlyVYhEr095koLD3KbhcKjR95N3YkFsyhmVmngnx8tV8OL4e1PbljBMnQ95msTHcpJuax0GPr1rjQ0er7yvqXd/CR6LJUxq8Q9oCqFfFhpSRHbUIVsoDyJEOtE7DYP0QvY50jfdfdhbgw7Dymr7SpR+cT+VVxTIW0WElactlgVLBE9w2Dhu0Il4OZpvPWwLkEqw5tdAaC6D0yxtTMr8CkaYwACLCy66WwK1V0JT7AdI6a7goRrtZ5d7F5jYL7fMaEcC74zM7Oi1D27zUKxSTTmQFdpIDHCW4c09Hc6jEvRtrTP5/uUERJaIGQHC6frN64bbFYSWGj0lbJjotKjPSDeoaVJ0F2hzUWItPHNixeoxdVR3VyOCRZ8C2aRT8FCDo9SSEFmg2hR+R8Y28o5VNpoo1ZKvdnN9RjQWKe5+7DGW9gs1HFenepDXgZm5XhpEhP/gqgFLlFKDdXNqfKiSHN1+9Bm8R2/qJ2l+HfDGV7Z8pmAirxDQ8G2rEq9kO+CZfLiPuq3mnUmVTMKThvyJTpYd2tWxetrxQMcApauXvyYWbqsQdNO3Bu9tnS++cAK/qVkZDOhP5cbLEPX4492QwOztOzGohfEo7NX9wGzjm0rYXaiByyt6/Fnk511ZunHOlNKUF2avZ4diyhMBA17M5dfBgs3pfiwTERviKHL5ScdLKLpGElgltWVrY+v0POB9acFGLv0AiR9wzDwFGVZOQyLllTQEz7BF5xM4rX2t2gyNPTNZe27BFK8sdc4Pk+vscqq/QUfykprz2LwJlHihmZ6Spq5SFrCJ57e8dbXC9afubla03BRLbyzTw8hxBWvAS4qPlG9nZ2pTO6pBdx1aR4xJHzijhFJBsULlrW52jcEn6a5DyjLNep2jDErri8KOph4hVjJzLpQH2vcxNRcxM6sZ4F5ZOJf6AUWPiffByuq8WlU7cBkjP4PWkqQqGAxHhnuCqYW2Lv++2AZ3IcvqdTNEzkrlJ0gRjuGEj7PmL8b0pA0tv4zBKzv1aHcAqwyoTiVg5tU68yqo5gFj2PILmCWJXT9qXW3RZSofrpSfwHGI5V/cV4AdDlsswuYRay9WT+y7jYHWmXWYkgcTua7gsHq4/fQcGbhws2vWPfFFqrs9chgpvOI2uOH3r+muxIsQqr1y2gV9mNsZ0hJUx9Y0cHtIKVSErM2/+H9Vbs1vDNrDFwJuO+tSVBOn4XUMP9IAljXLMN9uD39kuVq2nVyhBANzEKhnQXf1UQxi1wNFm/N/IKGGPmqXHmnXT1Vru2wKK6Wdu9nOTrCI7keEcJgEcy/d5LNumI3PJzrHs6/ZVWyMMLxzq/s/K5epzL5ypOuW/Vks5dZc8puOGR/14GlLHYi+koC7TgC53cV5z/3v5UImr7PqdIabrMQ/1LAis6GRYEFEjfTKK+vdUNRs5UiY6VoIx7bcUdV20U6pUOAMvljsKD9wqXjB9WuOCKcqYRYeS5HuSsqUirPld3fpWCJiGx95bglMepcFbmdywv4ylSadsXZd3nSXK8FS3jS1055IcdYuEPmeSiC670F/anyzS8GRfmjIvGviAMLDO2lo9Y3l27vxVk/ZhlEIVPHW97Vh5xx3JvgNe0caaiFMYlfH5FgrbDpXtzUfprXbn1PZwl9dZ/zfD0Jz0i1sK8odwVdYgeJt7xxYEEjkuLqnsdsngvCgDUMx7rLzVGO5zioHdrxWmbBHvSDyZbXteuGjn3xYodIsCBWQn88jvebF4QwLshIm4NNjyf5b8GSnkN5NVhwcHv9v8yC1N5MrgZruf3Aebj2EmnDOv55R4Ilvd8h+1+xAvfn+/os64n9cufhOrC64zh+MVhw2r941tIPNsOhupxZ0jyu5X+KFmS3E/oRRzMLHsyPRhdfsBk23o45X2NWTGpkP7SUpdsbL/WLnN7hg7t1Q1llgVSH2OL8C7DkMdQbl5rmjgvZqGPk0V/56oaQi7qa0VXvfuCTtUI8RQFWQkzu9pdotHw1fmQ5dcxprXsneQdnb3urkYGKvIYGlKN211RYWIxWG6KbU0ekWbsq4ooXZxLbyoWj2M/Tr+7vUIU8nr9gVhUUAMS9DirP3hSSm7Xmu07tYBrqUYpCKKCtfsAs6QG7EkmaENUmVCcxYFm5rGR66tW1FOUPpOQXzIKyrdZFeNSF267qfxYRYNl+INL45C7SgOfQ/f0CLBDk1o7tUHZ3g0artmUoH3TjfPMsQ6RMdCZ7XrfE1E4as8RZ2jXOB9Ltw0o9ZVtQht/njqv27L9YPeaonYCqzqSZbQlggehz9cfXXmDgbLuB1CbfifUqRVLUARbu3H93cF6AtfwGLJAZOIYow+K6A1hWM3ICy87TNoxZRffwlgNAzKF4/sbAQzG3PQ4vdet3OBxZD2Igrb27ttbBDRaoI9oJQiK5/XvR1NROIrPu3p83FYhZq404cC7/jFkCrFEw2t5HT5ZI0+o3zALlhuN0KJdhtbrtm2x542RW4DJsR8FBB7PA2U8Ki6cwC7ZDu0QYDPyJWe5903lSC2eWEBM50prCAWzyv9+AJde91Z2B8+Nhs3zMcgnZvTYLmDWUXmZBgKaefwSWbA1jD58lMOvvE2YFgwVuVpxw/iOwREjIqpw7dkOfzQLhlZtZgctQgmX/cZC6T+shkAIWZN7s6bBnEcossRt+iVmlj1kgihvGX9ksOB3aQ0JTEWizwM/6yGaRcGaBW9dnP2OW8AzsrfZ0ZpVu6xbCLLtSL5dgUQ+z4BfLq5+BBWS2PmqoaZY2y6pYEb99CLPsfMnBhooUsB0sqPhN2gzTwJKLy8aXBU6rcKcVrClAhQeOa2fz8oUWt5czJazBqjVZ55AO1uyGgCyQFJBhVZuNEFJCZ0Qcwq7WoBiAWVaeMz44PY/n78ACNtshkO2jZgir2h514xce+FKVmRRcEU/IW2rx0qbjpoElTli2BwSdEx5P6CJjs0nwqJ2iHOlJLm4LORMYr2r7dtCUJXHiaxpYYtex+cFEiprlHFaLRa2k7NL1qKGllmU7hC5tdxkQsYW8IUya2HwoCSxo9WALsgFf+lKOxbVYkaAWCzJQbz4ygMnavHJZymLep8tPglnJzIIuhhajBcUxua94W3ZDdKufpSjMuGdC1IWtPbdRAgVQR34JlqeI51TCIHtk3l1BXnclKpElYKajO2y4N+5cdY42r1XQT/s+WGXvyNrABs63QLC+xmgbLFKf+BnWYWugFnSI3Wteweukk4HGhb230pVgwbM2tlWCejfGAxkKNekqJWM8cUsix0TorX7kf9o7bck6fe1OWRmVXqaVCJbkhEEfA496b8Utay073WpNx53EE8lu0UCCYxFCP/p9Kq4cT9P0o/mHpRMrGaxSqnww38deyULLYZyNpkGQcxK8MYCjz3OtlMuRY6COwEbWcW9onQdZVQu9Kaj+EizZlHNDS+n2K7H6V9y5rSsIAlE4hDEGUTzj+z9p4t5xUDGTvrLbKXENaSbrX0/Wgj3ONffCcs65fmnUcfmnWDpMP+tt3Kj9B8TjCorheSpkjUujK3P4uliO2q8m4jo92RQzu8DVxqDwzPsCQCPxFZUmuN20GvB2KJp5KzqXsukeUfiwcVSyK/p+LlTbsIxviuUhT7AamoVO0HQtbinA7jhRZP1CSjQxoHb81Zm7WgiXCHIaEJrRW3oMeZhui+jnvNIUcuj1meXj7ZC2Bnyh3Cip+6ET9HoplGXlEnnPDf8Qh4PBxQNIFq2kU4qN5vrMgiP0UbCiLDB//y8v8gk+53oNJKYWZuO6EmNa5fATse4HveYr23K8128MH9i0u0xQrT3SAEyLHbmwKtKMDreUN8fSysQmhzgf9mmnonjDqAHGVb5RW+48zAYYbfSPE3W+vvxQLGBFu+0gl9ukToOUOld5rBbRfyZ8d7kr8si07zPBw8pkA02SWEsHV6hJ3u6jsUwlrrnD75v4jeVeVopyylUruyaPQ4BYrTMT7j6/qrLrP2CfSRPLWOLHqbQt5CKLuxygniuprZSaXNwjI/XCcn4ltaFYjQv2mXzGlXVL/QAT0tfoTgolykHXh6drYKPuSqGqgM9waaf3UykwjsP0ke0B5XF60vxsaAYAAAAASUVORK5CYII=;" vertex="1" parent="9iFDc-Ykth7a7X6Qurif-20">
          <mxGeometry width="69.86383394383394" height="47.27716727716727" as="geometry" />
        </mxCell>
        <mxCell id="9iFDc-Ykth7a7X6Qurif-19" value="Telegraf Agent" style="text;strokeColor=none;align=center;fillColor=none;html=1;verticalAlign=middle;whiteSpace=wrap;rounded=0;" vertex="1" parent="9iFDc-Ykth7a7X6Qurif-23">
          <mxGeometry x="21.794945151764377" y="50.28249084249085" width="65.32542951469905" height="17.728937728937726" as="geometry" />
        </mxCell>
        <mxCell id="9iFDc-Ykth7a7X6Qurif-25" style="edgeStyle=orthogonalEdgeStyle;rounded=0;orthogonalLoop=1;jettySize=auto;html=1;exitX=1;exitY=0.5;exitDx=0;exitDy=0;" edge="1" parent="9iFDc-Ykth7a7X6Qurif-11" source="9iFDc-Ykth7a7X6Qurif-18" target="9iFDc-Ykth7a7X6Qurif-15">
          <mxGeometry relative="1" as="geometry" />
        </mxCell>
        <mxCell id="9iFDc-Ykth7a7X6Qurif-27" style="edgeStyle=orthogonalEdgeStyle;rounded=0;orthogonalLoop=1;jettySize=auto;html=1;exitX=1;exitY=0.5;exitDx=0;exitDy=0;" edge="1" parent="9iFDc-Ykth7a7X6Qurif-11" source="9iFDc-Ykth7a7X6Qurif-15" target="9iFDc-Ykth7a7X6Qurif-26">
          <mxGeometry relative="1" as="geometry" />
        </mxCell>
        <mxCell id="9iFDc-Ykth7a7X6Qurif-29" value="" style="group" vertex="1" connectable="0" parent="9iFDc-Ykth7a7X6Qurif-11">
          <mxGeometry x="530.0004950495049" y="220.00031746031743" width="96.9108910891089" height="82.4126984126984" as="geometry" />
        </mxCell>
        <mxCell id="9iFDc-Ykth7a7X6Qurif-26" value="" style="image;aspect=fixed;html=1;points=[];align=center;fontSize=12;image=img/lib/azure2/other/Grafana.svg;" vertex="1" parent="9iFDc-Ykth7a7X6Qurif-29">
          <mxGeometry width="68.36063492063491" height="53.079365079365076" as="geometry" />
        </mxCell>
        <mxCell id="9iFDc-Ykth7a7X6Qurif-28" value="Grafana" style="text;strokeColor=none;align=center;fillColor=none;html=1;verticalAlign=middle;whiteSpace=wrap;rounded=0;" vertex="1" parent="9iFDc-Ykth7a7X6Qurif-29">
          <mxGeometry x="19.801980198019802" y="61.460317460317455" width="59.4059405940594" height="20.952380952380953" as="geometry" />
        </mxCell>
        <mxCell id="9iFDc-Ykth7a7X6Qurif-34" style="edgeStyle=orthogonalEdgeStyle;rounded=0;orthogonalLoop=1;jettySize=auto;html=1;exitX=0.5;exitY=0;exitDx=0;exitDy=0;" edge="1" parent="9iFDc-Ykth7a7X6Qurif-11" source="9iFDc-Ykth7a7X6Qurif-18" target="9iFDc-Ykth7a7X6Qurif-1">
          <mxGeometry relative="1" as="geometry" />
        </mxCell>
        <mxCell id="9iFDc-Ykth7a7X6Qurif-13" value="" style="image;html=1;image=img/lib/clip_art/computers/Network_128x128.png" vertex="1" parent="1">
          <mxGeometry x="900" y="190" width="80" height="80" as="geometry" />
        </mxCell>
        <mxCell id="9iFDc-Ykth7a7X6Qurif-10" value="Loki External Network" style="text;strokeColor=none;align=center;fillColor=none;html=1;verticalAlign=middle;whiteSpace=wrap;rounded=0;" vertex="1" parent="1">
          <mxGeometry x="890" y="270" width="130" height="30" as="geometry" />
        </mxCell>
      </root>
    </mxGraphModel>
  </diagram>
</mxfile>
